<svg xmlns="http://www.w3.org/2000/svg" width="1024" height="1024" fill="none" viewBox="80 80 864 864">
	<style>
		.logo-rays {
			transform-box: view-box;
			transform-origin: 512px 512px;
			animation: logo-spin 42s linear infinite;
		}

		.logo-core {
			transform-box: view-box;
			transform-origin: 512px 512px;
			animation: logo-breathe 5.6s ease-in-out infinite;
		}

		.logo-letter {
			animation: logo-letter-soften 5.6s ease-in-out infinite;
		}

		@keyframes logo-spin {
			to {
				transform: rotate(360deg);
			}
		}

		@keyframes logo-breathe {
			0%,
			100% {
				transform: scale(1);
			}

			50% {
				transform: scale(1.025);
			}
		}

		@keyframes logo-letter-soften {
			0%,
			100% {
				opacity: 0.96;
			}

			50% {
				opacity: 1;
			}
		}

		@media (prefers-reduced-motion: reduce) {
			.logo-rays,
			.logo-core,
			.logo-letter {
				animation: none;
			}
		}
	</style>
	<defs>
		<mask id="cutout">
			<path fill="#fff" d="M0 0h1024v1024H0z"/>
			<circle cx="512" cy="512" r="135" fill="#000"/>
		</mask>
	</defs>
	<g class="logo-rays" fill="#eaeaea" mask="url(#cutout)">
		<rect width="30" height="360" x="497" y="80" rx="4"/>
		<rect width="30" height="360" x="497" y="80" rx="4" transform="rotate(10 512 512)"/>
		<rect width="30" height="360" x="497" y="80" rx="4" transform="rotate(20 512 512)"/>
		<rect width="30" height="360" x="497" y="80" rx="4" transform="rotate(30 512 512)"/>
		<rect width="30" height="360" x="497" y="80" rx="4" transform="rotate(40 512 512)"/>
		<rect width="30" height="360" x="497" y="80" rx="4" transform="rotate(50 512 512)"/>
		<rect width="30" height="360" x="497" y="80" rx="4" transform="rotate(60 512 512)"/>
		<rect width="30" height="360" x="497" y="80" rx="4" transform="rotate(70 512 512)"/>
		<rect width="30" height="360" x="497" y="80" rx="4" transform="rotate(80 512 512)"/>
		<rect width="30" height="360" x="497" y="80" rx="4" transform="rotate(90 512 512)"/>
		<rect width="30" height="360" x="497" y="80" rx="4" transform="rotate(100 512 512)"/>
		<rect width="30" height="360" x="497" y="80" rx="4" transform="rotate(110 512 512)"/>
		<rect width="30" height="360" x="497" y="80" rx="4" transform="rotate(120 512 512)"/>
		<rect width="30" height="360" x="497" y="80" rx="4" transform="rotate(130 512 512)"/>
		<rect width="30" height="360" x="497" y="80" rx="4" transform="rotate(140 512 512)"/>
		<rect width="30" height="360" x="497" y="80" rx="4" transform="rotate(150 512 512)"/>
		<rect width="30" height="360" x="497" y="80" rx="4" transform="rotate(160 512 512)"/>
		<rect width="30" height="360" x="497" y="80" rx="4" transform="rotate(170 512 512)"/>
		<rect width="30" height="360" x="497" y="80" rx="4" transform="rotate(180 512 512)"/>
		<rect width="30" height="360" x="497" y="80" rx="4" transform="rotate(190 512 512)"/>
		<rect width="30" height="360" x="497" y="80" rx="4" transform="rotate(200 512 512)"/>
		<rect width="30" height="360" x="497" y="80" rx="4" transform="rotate(210 512 512)"/>
		<rect width="30" height="360" x="497" y="80" rx="4" transform="rotate(220 512 512)"/>
		<rect width="30" height="360" x="497" y="80" rx="4" transform="rotate(230 512 512)"/>
		<rect width="30" height="360" x="497" y="80" rx="4" transform="rotate(240 512 512)"/>
		<rect width="30" height="360" x="497" y="80" rx="4" transform="rotate(250 512 512)"/>
		<rect width="30" height="360" x="497" y="80" rx="4" transform="rotate(260 512 512)"/>
		<rect width="30" height="360" x="497" y="80" rx="4" transform="rotate(270 512 512)"/>
		<rect width="30" height="360" x="497" y="80" rx="4" transform="rotate(280 512 512)"/>
		<rect width="30" height="360" x="497" y="80" rx="4" transform="rotate(290 512 512)"/>
		<rect width="30" height="360" x="497" y="80" rx="4" transform="rotate(300 512 512)"/>
		<rect width="30" height="360" x="497" y="80" rx="4" transform="rotate(310 512 512)"/>
		<rect width="30" height="360" x="497" y="80" rx="4" transform="rotate(320 512 512)"/>
		<rect width="30" height="360" x="497" y="80" rx="4" transform="rotate(330 512 512)"/>
		<rect width="30" height="360" x="497" y="80" rx="4" transform="rotate(340 512 512)"/>
		<rect width="30" height="360" x="497" y="80" rx="4" transform="rotate(350 512 512)"/>
	</g>
	<g class="logo-core">
		<circle cx="512" cy="512" r="135" fill="#000"/>
		<path class="logo-letter" fill="#f2f2f2" d="M433 620V428h41l38 76 38-76h41v192h-43V501l-28 57h-16l-28-57v119z"/>
	</g>
</svg>
