<svg width="1024" height="1024" viewBox="0 0 1024 1024" fill="none" xmlns="http://www.w3.org/2000/svg">
  <defs>
    <mask id="cutout">
      <rect width="1024" height="1024" fill="white"/>
      <circle cx="512" cy="512" r="135" fill="black"/>
    </mask>
  </defs>

  <!-- Rays -->
  <g mask="url(#cutout)">
    <rect x="494.4" y="69.5" width="35.2" height="374.3" rx="4.0" transform="rotate(0 512 512)" fill="#d5d5d5"/>
    <rect x="497.3" y="73.7" width="29.5" height="361.8" rx="4.0" transform="rotate(10 512 512)" fill="#d9d9d9"/>
    <rect x="498.0" y="83.2" width="27.9" height="358.3" rx="4.0" transform="rotate(20 512 512)" fill="#dadada"/>
    <rect x="499.7" y="70.8" width="24.7" height="351.2" rx="4.0" transform="rotate(30 512 512)" fill="#dddddd"/>
    <rect x="502.1" y="69.6" width="19.7" height="340.3" rx="4.0" transform="rotate(40 512 512)" fill="#e0e0e0"/>
    <rect x="502.7" y="79.6" width="18.5" height="337.6" rx="4.0" transform="rotate(50 512 512)" fill="#e1e1e1"/>
    <rect x="503.4" y="73.2" width="17.2" height="334.7" rx="4.0" transform="rotate(60 512 512)" fill="#e2e2e2"/>
    <rect x="501.9" y="80.4" width="20.2" height="341.3" rx="4.0" transform="rotate(70 512 512)" fill="#e0e0e0"/>
    <rect x="503.3" y="81.4" width="17.4" height="335.2" rx="4.0" transform="rotate(80 512 512)" fill="#e2e2e2"/>
    <rect x="499.9" y="69.1" width="24.2" height="350.2" rx="4.0" transform="rotate(90 512 512)" fill="#dddddd"/>
    <rect x="497.9" y="83.7" width="28.3" height="359.2" rx="4.0" transform="rotate(100 512 512)" fill="#dadada"/>
    <rect x="497.1" y="72.3" width="29.8" height="362.5" rx="4.0" transform="rotate(110 512 512)" fill="#d9d9d9"/>
    <rect x="493.6" y="76.1" width="36.9" height="378.1" rx="4.0" transform="rotate(120 512 512)" fill="#d4d4d4"/>
    <rect x="494.4" y="71.0" width="35.2" height="374.3" rx="4.0" transform="rotate(130 512 512)" fill="#d5d5d5"/>
    <rect x="492.0" y="81.7" width="40.0" height="385.0" rx="4.0" transform="rotate(140 512 512)" fill="#d2d2d2"/>
    <rect x="492.0" y="84.3" width="40.0" height="385.0" rx="4.0" transform="rotate(150 512 512)" fill="#d2d2d2"/>
    <rect x="492.2" y="89.4" width="39.5" height="383.9" rx="4.0" transform="rotate(160 512 512)" fill="#d2d2d2"/>
    <rect x="493.6" y="80.6" width="36.7" height="377.8" rx="4.0" transform="rotate(170 512 512)" fill="#d4d4d4"/>
    <rect x="493.9" y="82.0" width="36.2" height="376.6" rx="4.0" transform="rotate(180 512 512)" fill="#d4d4d4"/>
    <rect x="495.7" y="81.1" width="32.7" height="368.8" rx="4.0" transform="rotate(190 512 512)" fill="#d7d7d7"/>
    <rect x="498.1" y="70.0" width="27.7" height="357.9" rx="4.0" transform="rotate(200 512 512)" fill="#dbdbdb"/>
    <rect x="501.5" y="75.1" width="21.1" height="343.2" rx="4.0" transform="rotate(210 512 512)" fill="#dfdfdf"/>
    <rect x="503.1" y="73.9" width="17.9" height="336.2" rx="4.0" transform="rotate(220 512 512)" fill="#e2e2e2"/>
    <rect x="503.1" y="74.8" width="17.9" height="336.2" rx="4.0" transform="rotate(230 512 512)" fill="#e2e2e2"/>
    <rect x="501.7" y="76.7" width="20.5" height="342.0" rx="4.0" transform="rotate(240 512 512)" fill="#e0e0e0"/>
    <rect x="502.7" y="73.4" width="18.7" height="338.0" rx="4.0" transform="rotate(250 512 512)" fill="#e1e1e1"/>
    <rect x="503.2" y="88.7" width="17.7" height="335.8" rx="4.0" transform="rotate(260 512 512)" fill="#e2e2e2"/>
    <rect x="500.3" y="81.8" width="23.4" height="348.3" rx="4.0" transform="rotate(270 512 512)" fill="#dedede"/>
    <rect x="499.6" y="84.3" width="24.8" height="351.5" rx="4.0" transform="rotate(280 512 512)" fill="#dddddd"/>
    <rect x="497.6" y="77.0" width="28.9" height="360.4" rx="4.0" transform="rotate(290 512 512)" fill="#dadada"/>
    <rect x="493.5" y="82.4" width="37.1" height="378.5" rx="4.0" transform="rotate(300 512 512)" fill="#d4d4d4"/>
    <rect x="493.2" y="83.4" width="37.7" height="379.9" rx="4.0" transform="rotate(310 512 512)" fill="#d3d3d3"/>
    <rect x="492.0" y="85.3" width="40.0" height="385.0" rx="4.0" transform="rotate(320 512 512)" fill="#d2d2d2"/>
    <rect x="492.7" y="69.7" width="38.5" height="381.7" rx="4.0" transform="rotate(330 512 512)" fill="#d3d3d3"/>
    <rect x="492.8" y="74.6" width="38.3" height="381.3" rx="4.0" transform="rotate(340 512 512)" fill="#d3d3d3"/>
    <rect x="494.1" y="88.8" width="35.8" height="375.8" rx="4.0" transform="rotate(350 512 512)" fill="#d5d5d5"/>
  </g>

  <!-- Center Circle -->
  <circle cx="512" cy="512" r="135" fill="black"/>

  <!-- Letter M -->
  <path d="M433 620V428H474L512 504L550 428H591V620H548V501L520 558H504L476 501V620H433Z"
        fill="#F2F2F2"/>
</svg>