<svg xmlns="http://www.w3.org/2000/svg" width="24" height="24" viewBox="0 0 24 24" fill="currentColor">
  <path fill-rule="evenodd" d="
    M12 24 C19 24 24 20 24 16
    C24 11 23 8 22 6
    A5 5 0 1 0 12 6
    A5 5 0 1 0 2 6
    C1 8 0 11 0 16
    C0 20 5 24 12 24 Z
    M14 6 a3 3 0 1 0 6 0 a3 3 0 1 0 -6 0 Z
    M4  6 a3 3 0 1 0 6 0 a3 3 0 1 0 -6 0 Z
    M9.7  14 a.8 .8 0 1 0 1.6 0 a.8 .8 0 1 0 -1.6 0 Z
    M12.7 14 a.8 .8 0 1 0 1.6 0 a.8 .8 0 1 0 -1.6 0 Z
  "/>
  <circle cx="7.5"  cy="6.5" r="1.4"/>
  <circle cx="16.5" cy="6.5" r="1.4"/>
  <path d="M8 18Q12 22 16 18" fill="none" stroke="currentColor" stroke-width="1.5" stroke-linecap="round"/>
</svg>