<svg version="1.2" xmlns="http://www.w3.org/2000/svg" viewBox="0 0 24 24" width="24" height="24">
	<style>
		.s0 { fill: #000000 } 
		.s1 { fill: none;stroke: #000000;stroke-linecap: round;stroke-width: 1.5 } 
	</style>
	<path fill-rule="evenodd" class="s0" d="m0.41 15.88c0-4.83 0.96-7.73 1.93-9.66 0-1.28 0.51-2.51 1.41-3.42 0.91-0.9 2.14-1.41 3.42-1.41 1.28 0 2.51 0.51 3.41 1.41 0.91 0.91 1.42 2.14 1.42 3.42 0-1.28 0.51-2.51 1.42-3.42 0.9-0.9 2.13-1.41 3.41-1.41 1.28 0 2.51 0.51 3.42 1.41 0.9 0.91 1.41 2.14 1.41 3.42 0.97 1.93 1.93 4.83 1.93 9.66 0 3.87-4.83 7.73-11.59 7.73-6.76 0-11.59-3.86-11.59-7.73zm13.52-9.66c0 0.77 0.31 1.51 0.85 2.05 0.55 0.54 1.28 0.85 2.05 0.85 0.77 0 1.51-0.31 2.05-0.85 0.54-0.54 0.85-1.28 0.85-2.05 0-0.77-0.31-1.51-0.85-2.05-0.54-0.54-1.28-0.85-2.05-0.85-0.77 0-1.5 0.31-2.05 0.85-0.54 0.54-0.85 1.28-0.85 2.05zm-9.66 0c0 0.77 0.31 1.51 0.85 2.05 0.54 0.54 1.28 0.85 2.05 0.85 0.77 0 1.5-0.31 2.05-0.85 0.54-0.54 0.85-1.28 0.85-2.05 0-0.77-0.31-1.51-0.85-2.05-0.55-0.54-1.28-0.85-2.05-0.85-0.77 0-1.51 0.31-2.05 0.85-0.54 0.54-0.85 1.28-0.85 2.05zm5.51 7.73q0 0.32 0.22 0.55 0.23 0.22 0.55 0.22 0.32 0 0.55-0.22 0.22-0.23 0.22-0.55 0-0.32-0.22-0.55-0.23-0.22-0.55-0.22-0.32 0-0.55 0.22-0.22 0.23-0.22 0.55zm2.9 0q0 0.32 0.22 0.55 0.23 0.22 0.55 0.22 0.32 0 0.55-0.22 0.22-0.23 0.22-0.55 0-0.32-0.22-0.55-0.23-0.22-0.55-0.22-0.32 0-0.55 0.22-0.22 0.23-0.22 0.55z"/>
	<path fill-rule="evenodd" class="s0" d="m7.65 8.06c-0.75 0-1.35-0.61-1.35-1.36 0-0.75 0.6-1.35 1.35-1.35 0.75 0 1.35 0.6 1.35 1.35 0 0.75-0.6 1.36-1.35 1.36z"/>
	<path fill-rule="evenodd" class="s0" d="m16.35 8.06c-0.75 0-1.35-0.61-1.35-1.36 0-0.75 0.6-1.35 1.35-1.35 0.75 0 1.35 0.6 1.35 1.35 0 0.75-0.6 1.36-1.35 1.36z"/>
	<path class="s1" d="m8.14 17.81q3.86 3.87 7.72 0"/>
</svg>